<mxfile host="app.diagrams.net" modified="2023-03-29T12:28:31.058Z" agent="Mozilla/5.0 (X11; Linux x86_64) AppleWebKit/537.36 (KHTML, like Gecko) Chrome/111.0.0.0 Safari/537.36" etag="06Y-7NoFFXfVVpWfQYl6" version="21.1.1" type="github">
  <diagram id="C5RBs43oDa-KdzZeNtuy" name="Page-1">
    <mxGraphModel dx="1195" dy="631" grid="1" gridSize="10" guides="1" tooltips="1" connect="1" arrows="1" fold="1" page="1" pageScale="1" pageWidth="827" pageHeight="1169" math="0" shadow="0">
      <root>
        <mxCell id="WIyWlLk6GJQsqaUBKTNV-0" />
        <mxCell id="WIyWlLk6GJQsqaUBKTNV-1" parent="WIyWlLk6GJQsqaUBKTNV-0" />
        <mxCell id="WIyWlLk6GJQsqaUBKTNV-2" value="" style="rounded=0;html=1;jettySize=auto;orthogonalLoop=1;fontSize=11;endArrow=block;endFill=0;endSize=8;strokeWidth=1;shadow=0;labelBackgroundColor=none;edgeStyle=orthogonalEdgeStyle;" parent="WIyWlLk6GJQsqaUBKTNV-1" source="WIyWlLk6GJQsqaUBKTNV-3" target="WIyWlLk6GJQsqaUBKTNV-6" edge="1">
          <mxGeometry relative="1" as="geometry" />
        </mxCell>
        <mxCell id="WIyWlLk6GJQsqaUBKTNV-3" value="idf_component.yml" style="rounded=1;whiteSpace=wrap;html=1;fontSize=12;glass=0;strokeWidth=1;shadow=0;" parent="WIyWlLk6GJQsqaUBKTNV-1" vertex="1">
          <mxGeometry x="320" y="100" width="120" height="40" as="geometry" />
        </mxCell>
        <mxCell id="6gFx3DaEnGbj6TpwBMHG-3" value="" style="edgeStyle=orthogonalEdgeStyle;rounded=0;orthogonalLoop=1;jettySize=auto;html=1;" edge="1" parent="WIyWlLk6GJQsqaUBKTNV-1" source="WIyWlLk6GJQsqaUBKTNV-6" target="6gFx3DaEnGbj6TpwBMHG-2">
          <mxGeometry relative="1" as="geometry" />
        </mxCell>
        <mxCell id="6gFx3DaEnGbj6TpwBMHG-17" value="Yes" style="edgeLabel;html=1;align=center;verticalAlign=middle;resizable=0;points=[];" vertex="1" connectable="0" parent="6gFx3DaEnGbj6TpwBMHG-3">
          <mxGeometry x="-0.3698" y="-2" relative="1" as="geometry">
            <mxPoint as="offset" />
          </mxGeometry>
        </mxCell>
        <mxCell id="6gFx3DaEnGbj6TpwBMHG-21" value="" style="edgeStyle=orthogonalEdgeStyle;rounded=0;orthogonalLoop=1;jettySize=auto;html=1;" edge="1" parent="WIyWlLk6GJQsqaUBKTNV-1" source="WIyWlLk6GJQsqaUBKTNV-6" target="6gFx3DaEnGbj6TpwBMHG-20">
          <mxGeometry relative="1" as="geometry" />
        </mxCell>
        <mxCell id="6gFx3DaEnGbj6TpwBMHG-22" value="No" style="edgeLabel;html=1;align=center;verticalAlign=middle;resizable=0;points=[];" vertex="1" connectable="0" parent="6gFx3DaEnGbj6TpwBMHG-21">
          <mxGeometry x="-0.2111" relative="1" as="geometry">
            <mxPoint as="offset" />
          </mxGeometry>
        </mxCell>
        <mxCell id="WIyWlLk6GJQsqaUBKTNV-6" value="is project manifest?" style="rhombus;whiteSpace=wrap;html=1;shadow=0;fontFamily=Helvetica;fontSize=12;align=center;strokeWidth=1;spacing=6;spacingTop=-4;" parent="WIyWlLk6GJQsqaUBKTNV-1" vertex="1">
          <mxGeometry x="330" y="170" width="100" height="80" as="geometry" />
        </mxCell>
        <mxCell id="6gFx3DaEnGbj6TpwBMHG-5" value="" style="edgeStyle=orthogonalEdgeStyle;rounded=0;orthogonalLoop=1;jettySize=auto;html=1;" edge="1" parent="WIyWlLk6GJQsqaUBKTNV-1" source="6gFx3DaEnGbj6TpwBMHG-2" target="6gFx3DaEnGbj6TpwBMHG-4">
          <mxGeometry relative="1" as="geometry" />
        </mxCell>
        <mxCell id="6gFx3DaEnGbj6TpwBMHG-2" value="flatten manifest keys" style="rounded=1;whiteSpace=wrap;html=1;shadow=0;strokeWidth=1;spacing=6;spacingTop=-4;" vertex="1" parent="WIyWlLk6GJQsqaUBKTNV-1">
          <mxGeometry x="120" y="180" width="120" height="60" as="geometry" />
        </mxCell>
        <mxCell id="6gFx3DaEnGbj6TpwBMHG-7" value="" style="edgeStyle=orthogonalEdgeStyle;rounded=0;orthogonalLoop=1;jettySize=auto;html=1;entryX=0;entryY=0.5;entryDx=0;entryDy=0;" edge="1" parent="WIyWlLk6GJQsqaUBKTNV-1" source="6gFx3DaEnGbj6TpwBMHG-4" target="6gFx3DaEnGbj6TpwBMHG-34">
          <mxGeometry relative="1" as="geometry">
            <mxPoint x="230" y="480" as="targetPoint" />
          </mxGeometry>
        </mxCell>
        <mxCell id="6gFx3DaEnGbj6TpwBMHG-8" value="Yes" style="edgeLabel;html=1;align=center;verticalAlign=middle;resizable=0;points=[];" vertex="1" connectable="0" parent="6gFx3DaEnGbj6TpwBMHG-7">
          <mxGeometry x="-0.2222" relative="1" as="geometry">
            <mxPoint as="offset" />
          </mxGeometry>
        </mxCell>
        <mxCell id="6gFx3DaEnGbj6TpwBMHG-61" style="edgeStyle=orthogonalEdgeStyle;rounded=0;orthogonalLoop=1;jettySize=auto;html=1;exitX=0;exitY=0.5;exitDx=0;exitDy=0;entryX=0;entryY=0.5;entryDx=0;entryDy=0;" edge="1" parent="WIyWlLk6GJQsqaUBKTNV-1" source="6gFx3DaEnGbj6TpwBMHG-4" target="6gFx3DaEnGbj6TpwBMHG-31">
          <mxGeometry relative="1" as="geometry" />
        </mxCell>
        <mxCell id="6gFx3DaEnGbj6TpwBMHG-62" value="No" style="edgeLabel;html=1;align=center;verticalAlign=middle;resizable=0;points=[];" vertex="1" connectable="0" parent="6gFx3DaEnGbj6TpwBMHG-61">
          <mxGeometry x="-0.7328" relative="1" as="geometry">
            <mxPoint as="offset" />
          </mxGeometry>
        </mxCell>
        <mxCell id="6gFx3DaEnGbj6TpwBMHG-4" value="key unknown?" style="rhombus;whiteSpace=wrap;html=1;rounded=1;shadow=0;strokeWidth=1;spacing=6;spacingTop=-4;" vertex="1" parent="WIyWlLk6GJQsqaUBKTNV-1">
          <mxGeometry x="140" y="280" width="80" height="80" as="geometry" />
        </mxCell>
        <mxCell id="6gFx3DaEnGbj6TpwBMHG-26" value="" style="edgeStyle=orthogonalEdgeStyle;rounded=0;orthogonalLoop=1;jettySize=auto;html=1;" edge="1" parent="WIyWlLk6GJQsqaUBKTNV-1" source="6gFx3DaEnGbj6TpwBMHG-20" target="6gFx3DaEnGbj6TpwBMHG-25">
          <mxGeometry relative="1" as="geometry" />
        </mxCell>
        <mxCell id="6gFx3DaEnGbj6TpwBMHG-28" value="" style="edgeStyle=orthogonalEdgeStyle;rounded=0;orthogonalLoop=1;jettySize=auto;html=1;" edge="1" parent="WIyWlLk6GJQsqaUBKTNV-1" source="6gFx3DaEnGbj6TpwBMHG-20" target="6gFx3DaEnGbj6TpwBMHG-27">
          <mxGeometry relative="1" as="geometry" />
        </mxCell>
        <mxCell id="6gFx3DaEnGbj6TpwBMHG-20" value=".metadata file exists?" style="rhombus;whiteSpace=wrap;html=1;shadow=0;strokeWidth=1;spacing=6;spacingTop=-4;" vertex="1" parent="WIyWlLk6GJQsqaUBKTNV-1">
          <mxGeometry x="520" y="170" width="140" height="80" as="geometry" />
        </mxCell>
        <mxCell id="6gFx3DaEnGbj6TpwBMHG-30" value="" style="edgeStyle=orthogonalEdgeStyle;rounded=0;orthogonalLoop=1;jettySize=auto;html=1;" edge="1" parent="WIyWlLk6GJQsqaUBKTNV-1" source="6gFx3DaEnGbj6TpwBMHG-25" target="6gFx3DaEnGbj6TpwBMHG-29">
          <mxGeometry relative="1" as="geometry" />
        </mxCell>
        <mxCell id="6gFx3DaEnGbj6TpwBMHG-25" value="Get `build_keys`, `info`keys` from .metadata file" style="rounded=1;whiteSpace=wrap;html=1;shadow=0;strokeWidth=1;spacing=6;spacingTop=-4;" vertex="1" parent="WIyWlLk6GJQsqaUBKTNV-1">
          <mxGeometry x="420" y="290" width="120" height="60" as="geometry" />
        </mxCell>
        <mxCell id="6gFx3DaEnGbj6TpwBMHG-41" style="edgeStyle=orthogonalEdgeStyle;rounded=0;orthogonalLoop=1;jettySize=auto;html=1;exitX=0.5;exitY=1;exitDx=0;exitDy=0;entryX=0.5;entryY=0;entryDx=0;entryDy=0;" edge="1" parent="WIyWlLk6GJQsqaUBKTNV-1" source="6gFx3DaEnGbj6TpwBMHG-27" target="6gFx3DaEnGbj6TpwBMHG-40">
          <mxGeometry relative="1" as="geometry" />
        </mxCell>
        <mxCell id="6gFx3DaEnGbj6TpwBMHG-27" value="Flatten manifest keys" style="rounded=1;whiteSpace=wrap;html=1;shadow=0;strokeWidth=1;spacing=6;spacingTop=-4;" vertex="1" parent="WIyWlLk6GJQsqaUBKTNV-1">
          <mxGeometry x="630" y="290" width="120" height="60" as="geometry" />
        </mxCell>
        <mxCell id="6gFx3DaEnGbj6TpwBMHG-35" value="" style="edgeStyle=orthogonalEdgeStyle;rounded=0;orthogonalLoop=1;jettySize=auto;html=1;entryX=0.5;entryY=0;entryDx=0;entryDy=0;" edge="1" parent="WIyWlLk6GJQsqaUBKTNV-1" source="6gFx3DaEnGbj6TpwBMHG-29" target="6gFx3DaEnGbj6TpwBMHG-34">
          <mxGeometry relative="1" as="geometry">
            <Array as="points">
              <mxPoint x="305" y="430" />
            </Array>
          </mxGeometry>
        </mxCell>
        <mxCell id="6gFx3DaEnGbj6TpwBMHG-38" value="Yes" style="edgeLabel;html=1;align=center;verticalAlign=middle;resizable=0;points=[];" vertex="1" connectable="0" parent="6gFx3DaEnGbj6TpwBMHG-35">
          <mxGeometry x="-0.3488" relative="1" as="geometry">
            <mxPoint as="offset" />
          </mxGeometry>
        </mxCell>
        <mxCell id="6gFx3DaEnGbj6TpwBMHG-39" style="edgeStyle=orthogonalEdgeStyle;rounded=0;orthogonalLoop=1;jettySize=auto;html=1;exitX=1;exitY=0.5;exitDx=0;exitDy=0;entryX=0;entryY=0.5;entryDx=0;entryDy=0;" edge="1" parent="WIyWlLk6GJQsqaUBKTNV-1" source="6gFx3DaEnGbj6TpwBMHG-29" target="6gFx3DaEnGbj6TpwBMHG-27">
          <mxGeometry relative="1" as="geometry" />
        </mxCell>
        <mxCell id="6gFx3DaEnGbj6TpwBMHG-42" value="No" style="edgeLabel;html=1;align=center;verticalAlign=middle;resizable=0;points=[];" vertex="1" connectable="0" parent="6gFx3DaEnGbj6TpwBMHG-39">
          <mxGeometry x="0.2708" y="1" relative="1" as="geometry">
            <mxPoint as="offset" />
          </mxGeometry>
        </mxCell>
        <mxCell id="6gFx3DaEnGbj6TpwBMHG-29" value="key unknown?" style="rhombus;whiteSpace=wrap;html=1;rounded=1;shadow=0;strokeWidth=1;spacing=6;spacingTop=-4;" vertex="1" parent="WIyWlLk6GJQsqaUBKTNV-1">
          <mxGeometry x="440" y="390" width="80" height="80" as="geometry" />
        </mxCell>
        <mxCell id="6gFx3DaEnGbj6TpwBMHG-31" value="Pass" style="rounded=1;whiteSpace=wrap;html=1;" vertex="1" parent="WIyWlLk6GJQsqaUBKTNV-1">
          <mxGeometry x="330" y="670" width="120" height="60" as="geometry" />
        </mxCell>
        <mxCell id="6gFx3DaEnGbj6TpwBMHG-34" value="Raise Metadata Error(Please upgrade your idf-component-manager)" style="whiteSpace=wrap;html=1;rounded=1;shadow=0;strokeWidth=1;spacing=6;spacingTop=-4;" vertex="1" parent="WIyWlLk6GJQsqaUBKTNV-1">
          <mxGeometry x="210" y="510" width="190" height="60" as="geometry" />
        </mxCell>
        <mxCell id="6gFx3DaEnGbj6TpwBMHG-57" style="edgeStyle=orthogonalEdgeStyle;rounded=0;orthogonalLoop=1;jettySize=auto;html=1;exitX=0;exitY=0.5;exitDx=0;exitDy=0;entryX=1;entryY=0.5;entryDx=0;entryDy=0;" edge="1" parent="WIyWlLk6GJQsqaUBKTNV-1" source="6gFx3DaEnGbj6TpwBMHG-40" target="6gFx3DaEnGbj6TpwBMHG-45">
          <mxGeometry relative="1" as="geometry" />
        </mxCell>
        <mxCell id="6gFx3DaEnGbj6TpwBMHG-58" value="Yes" style="edgeLabel;html=1;align=center;verticalAlign=middle;resizable=0;points=[];" vertex="1" connectable="0" parent="6gFx3DaEnGbj6TpwBMHG-57">
          <mxGeometry x="-0.4259" y="1" relative="1" as="geometry">
            <mxPoint as="offset" />
          </mxGeometry>
        </mxCell>
        <mxCell id="6gFx3DaEnGbj6TpwBMHG-59" style="edgeStyle=orthogonalEdgeStyle;rounded=0;orthogonalLoop=1;jettySize=auto;html=1;exitX=1;exitY=0.5;exitDx=0;exitDy=0;entryX=1;entryY=0.5;entryDx=0;entryDy=0;" edge="1" parent="WIyWlLk6GJQsqaUBKTNV-1" source="6gFx3DaEnGbj6TpwBMHG-40" target="6gFx3DaEnGbj6TpwBMHG-31">
          <mxGeometry relative="1" as="geometry" />
        </mxCell>
        <mxCell id="6gFx3DaEnGbj6TpwBMHG-60" value="No" style="edgeLabel;html=1;align=center;verticalAlign=middle;resizable=0;points=[];" vertex="1" connectable="0" parent="6gFx3DaEnGbj6TpwBMHG-59">
          <mxGeometry x="-0.7006" y="3" relative="1" as="geometry">
            <mxPoint as="offset" />
          </mxGeometry>
        </mxCell>
        <mxCell id="6gFx3DaEnGbj6TpwBMHG-40" value="key unknown?" style="rhombus;whiteSpace=wrap;html=1;rounded=1;shadow=0;strokeWidth=1;spacing=6;spacingTop=-4;" vertex="1" parent="WIyWlLk6GJQsqaUBKTNV-1">
          <mxGeometry x="650" y="430" width="80" height="80" as="geometry" />
        </mxCell>
        <mxCell id="6gFx3DaEnGbj6TpwBMHG-49" value="" style="edgeStyle=orthogonalEdgeStyle;rounded=0;orthogonalLoop=1;jettySize=auto;html=1;entryX=1;entryY=0.5;entryDx=0;entryDy=0;exitX=0;exitY=0.5;exitDx=0;exitDy=0;" edge="1" parent="WIyWlLk6GJQsqaUBKTNV-1" source="6gFx3DaEnGbj6TpwBMHG-45" target="6gFx3DaEnGbj6TpwBMHG-34">
          <mxGeometry relative="1" as="geometry">
            <mxPoint x="420" y="670" as="targetPoint" />
            <Array as="points">
              <mxPoint x="460" y="500" />
              <mxPoint x="460" y="540" />
            </Array>
          </mxGeometry>
        </mxCell>
        <mxCell id="6gFx3DaEnGbj6TpwBMHG-52" value="Yes" style="edgeLabel;html=1;align=center;verticalAlign=middle;resizable=0;points=[];" vertex="1" connectable="0" parent="6gFx3DaEnGbj6TpwBMHG-49">
          <mxGeometry x="-0.437" y="-1" relative="1" as="geometry">
            <mxPoint as="offset" />
          </mxGeometry>
        </mxCell>
        <mxCell id="6gFx3DaEnGbj6TpwBMHG-54" value="" style="edgeStyle=orthogonalEdgeStyle;rounded=0;orthogonalLoop=1;jettySize=auto;html=1;" edge="1" parent="WIyWlLk6GJQsqaUBKTNV-1" source="6gFx3DaEnGbj6TpwBMHG-45" target="6gFx3DaEnGbj6TpwBMHG-53">
          <mxGeometry relative="1" as="geometry" />
        </mxCell>
        <mxCell id="6gFx3DaEnGbj6TpwBMHG-56" value="No" style="edgeLabel;html=1;align=center;verticalAlign=middle;resizable=0;points=[];" vertex="1" connectable="0" parent="6gFx3DaEnGbj6TpwBMHG-54">
          <mxGeometry x="-0.3889" y="-1" relative="1" as="geometry">
            <mxPoint as="offset" />
          </mxGeometry>
        </mxCell>
        <mxCell id="6gFx3DaEnGbj6TpwBMHG-45" value="build key unknown?" style="rhombus;whiteSpace=wrap;html=1;rounded=1;shadow=0;strokeWidth=1;spacing=6;spacingTop=-4;" vertex="1" parent="WIyWlLk6GJQsqaUBKTNV-1">
          <mxGeometry x="510" y="460" width="80" height="80" as="geometry" />
        </mxCell>
        <mxCell id="6gFx3DaEnGbj6TpwBMHG-55" style="edgeStyle=orthogonalEdgeStyle;rounded=0;orthogonalLoop=1;jettySize=auto;html=1;exitX=0.5;exitY=1;exitDx=0;exitDy=0;entryX=0.5;entryY=1;entryDx=0;entryDy=0;" edge="1" parent="WIyWlLk6GJQsqaUBKTNV-1" source="6gFx3DaEnGbj6TpwBMHG-53" target="6gFx3DaEnGbj6TpwBMHG-40">
          <mxGeometry relative="1" as="geometry" />
        </mxCell>
        <mxCell id="6gFx3DaEnGbj6TpwBMHG-53" value="Drop the info key" style="rounded=1;whiteSpace=wrap;html=1;shadow=0;strokeWidth=1;spacing=6;spacingTop=-4;" vertex="1" parent="WIyWlLk6GJQsqaUBKTNV-1">
          <mxGeometry x="490" y="570" width="120" height="60" as="geometry" />
        </mxCell>
      </root>
    </mxGraphModel>
  </diagram>
</mxfile>
